<svg width="20" height="20" viewBox="0 0 20 20" fill="none" xmlns="http://www.w3.org/2000/svg">
<path d="M11.5554 2.57531C11.6844 2.33094 11.7578 2.05285 11.7578 1.75781C11.7578 0.788555 10.9692 0 9.99995 0C9.0307 0 8.24214 0.788555 8.24214 1.75781C8.24214 2.05285 8.31554 2.33094 8.44453 2.57531C4.34179 3.31164 1.21863 6.9073 1.21863 11.2187C1.21863 16.0607 5.15792 20 9.99995 20C14.842 20 18.7813 16.0607 18.7813 11.2187C18.7813 6.9073 15.6581 3.31168 11.5554 2.57531ZM9.99995 1.17188C10.323 1.17188 10.5859 1.43473 10.5859 1.75781C10.5859 2.0809 10.323 2.34375 9.99995 2.34375C9.67687 2.34375 9.41402 2.0809 9.41402 1.75781C9.41402 1.43473 9.67687 1.17188 9.99995 1.17188ZM9.99995 18.8281C5.8041 18.8281 2.3905 15.4145 2.3905 11.2187C2.3905 7.02281 5.8041 3.60922 9.99995 3.60922C14.1958 3.60922 17.6094 7.02281 17.6094 11.2187C17.6094 15.4145 14.1958 18.8281 9.99995 18.8281Z" fill="white" fill-opacity="0.54"/>
<path d="M14.5825 6.68113C14.5743 6.67184 14.5663 6.66234 14.5574 6.65344C14.548 6.64402 14.538 6.63563 14.5282 6.62699C13.3621 5.47688 11.7621 4.76562 9.99992 4.76562C8.23019 4.76562 6.62476 5.48188 5.45777 6.63953C5.45269 6.64426 5.44734 6.64848 5.44242 6.65344C5.43828 6.65758 5.4348 6.66207 5.43082 6.66625C4.26723 7.83406 3.54688 9.44379 3.54688 11.2187C3.54688 11.5423 3.80922 11.8046 4.13281 11.8046H4.79687C5.12047 11.8046 5.38281 11.5423 5.38281 11.2187C5.38281 10.8951 5.12047 10.6327 4.79687 10.6327H4.75145C4.86453 9.61309 5.26898 8.68016 5.87957 7.91922L5.91199 7.95164C6.02641 8.06605 6.17637 8.12328 6.32629 8.12328C6.47621 8.12328 6.62621 8.06609 6.74059 7.95164C6.96941 7.72281 6.96941 7.35184 6.74059 7.12301L6.70902 7.09145C7.46844 6.48469 8.39816 6.08289 9.41398 5.97023V6.01562C9.41398 6.33922 9.67633 6.60156 9.99992 6.60156C10.3235 6.60156 10.5859 6.33922 10.5859 6.01562V5.97023C11.6013 6.08297 12.5309 6.48496 13.2904 7.09184L13.2593 7.12297C13.0304 7.3518 13.0304 7.72277 13.2593 7.9516C13.3737 8.06602 13.5236 8.12324 13.6736 8.12324C13.8235 8.12324 13.9735 8.06605 14.0879 7.9516L14.1198 7.91961C14.729 8.67863 15.1331 9.60867 15.2475 10.625H15.1952C14.8716 10.625 14.6093 10.8873 14.6093 11.2109C14.6093 11.5345 14.8716 11.7969 15.1952 11.7969C15.1952 11.7969 15.8675 11.7968 15.8678 11.7968C16.1914 11.7964 16.4534 11.5337 16.453 11.2101C16.4506 9.44629 15.736 7.84598 14.5825 6.68113Z" fill="white" fill-opacity="0.54"/>
<path d="M12.6571 8.56151C12.4283 8.33269 12.0573 8.33269 11.8285 8.56151L9.38164 11.0084C9.11074 10.8789 8.80836 10.8192 8.50207 10.8407C8.17925 10.8632 7.93582 11.1432 7.95836 11.466C7.9809 11.7888 8.26058 12.0324 8.58367 12.0097C8.75293 11.9978 8.91879 12.0599 9.03875 12.1799C9.15687 12.298 9.21906 12.4614 9.20937 12.6282C9.19062 12.9512 9.4373 13.2283 9.76035 13.2471C9.77191 13.2478 9.78339 13.2481 9.79484 13.2481C10.1029 13.248 10.3612 13.0076 10.3793 12.6961C10.3966 12.3972 10.3364 12.1021 10.2101 11.8373L12.6571 9.39019C12.8859 9.16132 12.8859 8.79034 12.6571 8.56151Z" fill="white" fill-opacity="0.54"/>
<path d="M13.3594 15.4297H6.64062C6.31703 15.4297 6.05469 15.692 6.05469 16.0156C6.05469 16.3392 6.31703 16.6016 6.64062 16.6016H13.3594C13.683 16.6016 13.9453 16.3392 13.9453 16.0156C13.9453 15.692 13.683 15.4297 13.3594 15.4297Z" fill="white" fill-opacity="0.54"/>
</svg>
