<svg width="35" height="33" viewBox="0 0 35 33" fill="none" xmlns="http://www.w3.org/2000/svg">
<path d="M21.0196 22.193C16.8116 22.1931 13.3691 18.7896 13.3303 14.573C13.2914 10.3326 16.7096 6.85107 20.95 6.8121C20.9738 6.8119 20.9979 6.81183 21.0217 6.81183C25.2297 6.81183 28.6722 10.2152 28.7108 14.4318C28.7497 18.6722 25.3316 22.1537 21.0912 22.1926C21.0675 22.1929 21.0433 22.193 21.0196 22.193Z" fill="#FDBF00"/>
<path d="M21.0216 6.81183C21.0213 6.81183 21.0208 6.81183 21.0205 6.81183V22.193C21.044 22.193 21.0677 22.1929 21.0911 22.1927C25.3315 22.1538 28.7496 18.6722 28.7107 14.4318C28.6721 10.2152 25.2296 6.81183 21.0216 6.81183Z" fill="#FF8856"/>
<path d="M21.0505 5.35031C20.4886 5.35031 20.0305 4.89743 20.0254 4.33435L19.9999 1.55862C19.9947 0.992332 20.4495 0.52906 21.0158 0.523865H21.0255C21.5874 0.523865 22.0454 0.976746 22.0506 1.53982L22.0761 4.31555C22.0813 4.88184 21.6265 5.34512 21.0602 5.35031C21.057 5.35031 21.0538 5.35031 21.0505 5.35031Z" fill="#FDBF00"/>
<path d="M31.1987 15.4347C30.6368 15.4347 30.1788 14.9818 30.1736 14.4188C30.1684 13.8525 30.6232 13.3892 31.1895 13.384L33.9653 13.3585H33.9749C34.5369 13.3585 34.9949 13.8114 35 14.3745C35.0052 14.9408 34.5504 15.404 33.9841 15.4092L31.2084 15.4347C31.2052 15.4347 31.202 15.4347 31.1987 15.4347Z" fill="#FF8856"/>
<path d="M28.2748 8.26497C28.0155 8.26497 27.7561 8.16729 27.5565 7.9713C27.1524 7.57454 27.1464 6.92533 27.5432 6.52126L29.4878 4.54048C29.8847 4.13641 30.5338 4.13039 30.9379 4.52715C31.342 4.92391 31.348 5.57312 30.9512 5.97719L29.0065 7.95797C28.8058 8.16243 28.5404 8.26497 28.2748 8.26497Z" fill="#FF8856"/>
<path d="M13.8812 8.39715C13.622 8.39715 13.3626 8.29947 13.1629 8.10348L11.1821 6.15873C10.7781 5.76197 10.7721 5.11276 11.1688 4.70869C11.5656 4.30462 12.2148 4.2986 12.6188 4.69536L14.5996 6.64011C15.0037 7.03687 15.0097 7.68608 14.613 8.09015C14.4123 8.29461 14.1468 8.39715 13.8812 8.39715Z" fill="#FDBF00"/>
<path d="M24.9635 6.09412C24.8353 6.09412 24.7051 6.06992 24.579 6.01892C24.0541 5.80639 23.8008 5.20859 24.0134 4.68366L25.0551 2.11068C25.2675 1.58575 25.8656 1.33261 26.3903 1.54501C26.9152 1.75754 27.1685 2.35534 26.9559 2.88027L25.9142 5.45325C25.7528 5.85206 25.3688 6.09412 24.9635 6.09412Z" fill="#FF8856"/>
<path d="M33.1511 20.3898C33.023 20.3898 32.8927 20.3656 32.7667 20.3146L30.1937 19.2729C29.6688 19.0604 29.4155 18.4626 29.6281 17.9377C29.8406 17.4127 30.4388 17.1595 30.9633 17.372L33.5363 18.4137C34.0612 18.6262 34.3145 19.224 34.1019 19.7489C33.9404 20.1478 33.5565 20.3898 33.1511 20.3898Z" fill="#FF8856"/>
<path d="M11.7093 11.7087C11.5812 11.7087 11.4509 11.6845 11.3249 11.6335L8.75191 10.5918C8.22698 10.3793 7.97371 9.78146 8.18624 9.25653C8.39877 8.73153 8.99664 8.4784 9.5215 8.69086L12.0945 9.73259C12.6194 9.94512 12.8727 10.5429 12.6602 11.0679C12.4987 11.4667 12.1147 11.7087 11.7093 11.7087Z" fill="#FDBF00"/>
<path d="M30.5167 11.558C30.1172 11.558 29.7376 11.3233 29.5721 10.9324C29.3512 10.4109 29.5948 9.80907 30.1163 9.5882L32.6723 8.50545C33.1938 8.28452 33.7956 8.52822 34.0164 9.04966C34.2373 9.57111 33.9936 10.1729 33.4722 10.3938L30.9162 11.4766C30.7857 11.5318 30.65 11.558 30.5167 11.558Z" fill="#FF8856"/>
<path d="M17.1743 6.15653C16.7749 6.15653 16.3953 5.92178 16.2297 5.53084L15.1469 2.97488C14.926 2.45343 15.1697 1.85167 15.691 1.63073C16.2124 1.40972 16.8143 1.65349 17.0352 2.17487L18.118 4.73083C18.3389 5.25227 18.0952 5.85404 17.5738 6.07498C17.4433 6.13035 17.3076 6.15653 17.1743 6.15653Z" fill="#FDBF00"/>
<path d="M15.2441 32.476C14.0295 32.476 12.8408 32.0566 11.8971 31.2949C11.3956 30.89 10.9732 30.3975 10.649 29.8477C9.94868 30.2861 9.13028 30.5291 8.28741 30.5291C6.29269 30.5291 4.57618 29.1942 4.02527 27.3521C3.09777 27.2632 2.21225 26.8846 1.50247 26.2577C0.547627 25.4142 0 24.1996 0 22.9253C0 20.611 1.77673 18.7039 4.03785 18.4966C4.26624 17.7567 4.68645 17.0848 5.26579 16.5481C6.09007 15.7845 7.16317 15.3638 8.28741 15.3638C9.12263 15.3638 9.93426 15.6026 10.6309 16.0341C10.954 15.4775 11.3773 14.9786 11.8817 14.5683C12.8281 13.7985 14.0222 13.3745 15.2441 13.3745C16.4661 13.3745 17.6602 13.7985 18.6066 14.5683C19.111 14.9786 19.5344 15.4775 19.8574 16.034C20.5539 15.6026 21.3657 15.3638 22.2009 15.3638C23.3251 15.3638 24.3983 15.7843 25.2226 16.548C25.8021 17.0849 26.2223 17.757 26.4506 18.4972C27.382 18.5839 28.2716 18.9626 28.9844 19.5916C29.9401 20.435 30.4883 21.65 30.4883 22.9252C30.4883 24.1996 29.9407 25.4142 28.9858 26.2575C28.2761 26.8844 27.3905 27.2629 26.463 27.352C25.9121 29.1941 24.1956 30.529 22.2009 30.529C21.3579 30.529 20.5396 30.2861 19.8393 29.8475C19.5151 30.3974 19.0927 30.89 18.5912 31.2947C17.6475 32.0566 16.4588 32.476 15.2441 32.476Z" fill="#FFF4F4"/>
<path d="M28.9844 19.5917C28.2716 18.9627 27.382 18.584 26.4506 18.4973C26.2223 17.7571 25.802 17.085 25.2226 16.5481C24.3983 15.7845 23.3252 15.3639 22.2009 15.3639C21.3657 15.3639 20.554 15.6027 19.8574 16.0342C19.5343 15.4776 19.111 14.9787 18.6066 14.5684C17.6602 13.7986 16.4661 13.3746 15.2441 13.3746V32.4761C16.4588 32.4761 17.6475 32.0566 18.5912 31.2949C19.0927 30.8901 19.5151 30.3976 19.8393 29.8477C20.5396 30.2863 21.358 30.5291 22.2009 30.5291C24.1956 30.5291 25.9121 29.1943 26.463 27.3521C27.3904 27.2631 28.2761 26.8846 28.9858 26.2577C29.9407 25.4143 30.4883 24.1997 30.4883 22.9253C30.4883 21.6502 29.9401 20.4351 28.9844 19.5917Z" fill="#F6EFEA"/>
<path d="M22.0505 1.53964C22.0454 0.976562 21.5874 0.523682 21.0254 0.523682C21.0238 0.523682 21.0221 0.523682 21.0205 0.523682V5.34869C21.0306 5.34896 21.0404 5.35019 21.0506 5.35019H21.0602C21.6265 5.345 22.0814 4.88166 22.0761 4.31544L22.0505 1.53964Z" fill="#FF8856"/>
</svg>
