<svg width="35" height="27" viewBox="0 0 35 27" fill="none" xmlns="http://www.w3.org/2000/svg">
<path d="M29.4091 18.9252C25.7807 18.9252 17.3616 16.275 13.628 12.9702C12.251 11.7514 11.5527 10.4961 11.5527 9.23929C11.5527 6.44996 13.822 4.1807 16.6113 4.1807C17.0894 4.1807 17.5612 4.24776 18.0141 4.37833C18.6991 2.38654 20.5868 0.972046 22.7979 0.972046C24.6251 0.972046 26.2966 1.96572 27.1872 3.51536C27.33 3.50326 27.4735 3.49717 27.6172 3.49717C30.4065 3.49717 32.6758 5.76643 32.6758 8.55577C32.6758 8.88382 32.6447 9.20764 32.5829 9.52503C34.0587 10.4335 35 12.0673 35 13.8386C35 15.1677 34.4651 16.4084 33.4938 17.3321C32.608 18.1744 31.3907 18.7276 30.0659 18.8896C29.87 18.9135 29.65 18.9252 29.4091 18.9252Z" fill="#EEE1DC"/>
<path d="M32.5829 9.52499C32.6447 9.20753 32.6758 8.88378 32.6758 8.55572C32.6758 5.76638 30.4065 3.49712 27.6172 3.49712C27.4734 3.49712 27.33 3.50321 27.1872 3.51531C26.375 2.10211 24.9133 1.15171 23.2764 0.995239V17.7547C25.6866 18.4909 27.9403 18.9252 29.4091 18.9252C29.65 18.9252 29.87 18.9135 30.0659 18.8896C31.3907 18.7276 32.608 18.1745 33.4938 17.3321C34.4651 16.4084 35 15.1677 35 13.8386C35 12.0673 34.0587 10.4335 32.5829 9.52499Z" fill="#E0D2CD"/>
<path d="M14.5696 26.028C13.4014 26.028 12.2583 25.6247 11.3508 24.8921C10.8815 24.5133 10.4843 24.0546 10.176 23.543C9.51057 23.9491 8.73811 24.1735 7.94288 24.1735C6.0323 24.1735 4.38669 22.9024 3.84583 21.1437C2.96399 21.0524 2.12317 20.6892 1.44758 20.0924C0.527666 19.2798 0 18.1096 0 16.8817C0 14.663 1.69511 12.8328 3.85813 12.6178C4.0803 11.9171 4.48144 11.2809 5.03152 10.7713C5.82572 10.0355 6.85966 9.63033 7.94288 9.63033C8.73065 9.63033 9.49676 9.85086 10.1583 10.2501C10.4657 9.73219 10.8639 9.26742 11.336 8.88344C12.2462 8.14311 13.3946 7.73541 14.5696 7.73541C15.7447 7.73541 16.8931 8.14311 17.8032 8.88344C18.2753 9.26742 18.6735 9.73226 18.9809 10.2501C19.6425 9.85093 20.4086 9.63033 21.1964 9.63033C22.2796 9.63033 23.3136 10.0356 24.1078 10.7713C24.658 11.2811 25.0592 11.9174 25.2813 12.6185C26.167 12.7077 27.0117 13.071 27.6903 13.6698C28.6112 14.4824 29.1393 15.6531 29.1393 16.8817C29.1393 18.1096 28.6117 19.2798 27.6917 20.0924C27.0162 20.6891 26.1753 21.0523 25.2934 21.1436C24.7526 22.9023 23.1069 24.1734 21.1964 24.1734C20.4012 24.1734 19.6286 23.949 18.9633 23.543C18.655 24.0546 18.2578 24.5133 17.7885 24.892C16.8809 25.6246 15.7378 26.028 14.5696 26.028Z" fill="#FFF4F4"/>
<path d="M27.6902 13.6698C27.0116 13.071 26.1669 12.7077 25.2812 12.6185C25.0591 11.9174 24.6579 11.2811 24.1076 10.7713C23.3134 10.0355 22.2795 9.63033 21.1963 9.63033C20.4086 9.63033 19.6424 9.85093 18.9808 10.2501C18.6735 9.73219 18.2753 9.26742 17.8031 8.88344C16.893 8.14311 15.7445 7.73541 14.5695 7.73541V26.028C15.7376 26.028 16.8808 25.6247 17.7883 24.8921C18.2576 24.5133 18.6548 24.0546 18.9631 23.543C19.6285 23.949 20.401 24.1735 21.1962 24.1735C23.1067 24.1735 24.7524 22.9024 25.2933 21.1437C26.175 21.0524 27.0159 20.6891 27.6915 20.0925C28.6115 19.2799 29.1392 18.1096 29.1392 16.8818C29.1392 15.6531 28.6111 14.4824 27.6902 13.6698Z" fill="#F6EFEA"/>
</svg>
