<svg width="35" height="35" viewBox="0 0 35 35" fill="none" xmlns="http://www.w3.org/2000/svg">
<g clip-path="url(#clip0_101_69)">
<path d="M21.3623 31.1036C21.3623 30.5373 20.9032 30.0782 20.3369 30.0782H19.9755L20.2311 29.8226C20.6315 29.4221 20.6315 28.7729 20.2311 28.3725C19.8307 27.972 19.1814 27.972 18.781 28.3725L18.5254 28.6281V28.2325C18.5254 27.6663 18.0663 27.2072 17.5 27.2072C16.9337 27.2072 16.4746 27.6663 16.4746 28.2325V28.6281L16.1949 28.3484C15.7945 27.948 15.1452 27.948 14.7448 28.3484C14.3443 28.7489 14.3443 29.3981 14.7448 29.7985L15.0245 30.0782H14.6631C14.0968 30.0782 13.6377 30.5373 13.6377 31.1036C13.6377 31.6699 14.0968 32.129 14.6631 32.129H15.0245L14.7689 32.3846C14.3685 32.7851 14.3685 33.4343 14.7689 33.8347C14.9691 34.035 15.2316 34.1351 15.4939 34.1351C15.7563 34.1351 16.0188 34.035 16.2189 33.8347L16.4745 33.5791V33.9747C16.4745 34.541 16.9336 35.0001 17.4999 35.0001C18.0662 35.0001 18.5253 34.541 18.5253 33.9747V33.5791L18.805 33.8588C19.0053 34.059 19.2677 34.1592 19.5301 34.1592C19.7924 34.1592 20.0549 34.0591 20.2551 33.8588C20.6555 33.4583 20.6555 32.8091 20.2551 32.4087L19.9755 32.129H20.3369C20.9033 32.129 21.3623 31.6699 21.3623 31.1036Z" fill="#7DD5F4"/>
<path d="M7.72461 24.6094C7.72461 24.0431 7.26551 23.584 6.69922 23.584H6.3378L6.5934 23.3284C6.99385 22.9279 6.99385 22.2787 6.5934 21.8783C6.19302 21.4778 5.54374 21.4778 5.14329 21.8783L4.8877 22.1339V21.7383C4.8877 21.172 4.42859 20.7129 3.8623 20.7129C3.29602 20.7129 2.83691 21.172 2.83691 21.7383V22.1339L2.55719 21.8542C2.15681 21.4537 1.50753 21.4537 1.10708 21.8542C0.706631 22.2546 0.706631 22.9038 1.10708 23.3043L1.38688 23.584H1.02539C0.459102 23.584 0 24.0431 0 24.6094C0 25.1757 0.459102 25.6348 1.02539 25.6348H1.38681L1.13121 25.8904C0.730762 26.2908 0.730762 26.94 1.13121 27.3405C1.33144 27.5407 1.59387 27.6408 1.85623 27.6408C2.11859 27.6408 2.38109 27.5408 2.58125 27.3405L2.83685 27.0849V27.4805C2.83685 28.0468 3.29595 28.5059 3.86224 28.5059C4.42853 28.5059 4.88763 28.0468 4.88763 27.4805V27.0849L5.16735 27.3646C5.36758 27.5648 5.63001 27.665 5.89237 27.665C6.15474 27.665 6.41724 27.5649 6.61739 27.3646C7.01784 26.9641 7.01784 26.3149 6.61739 25.9145L6.3378 25.6348H6.69922C7.26558 25.6348 7.72461 25.1757 7.72461 24.6094Z" fill="#7DD5F4"/>
<path d="M35 24.6094C35 24.0431 34.5409 23.584 33.9746 23.584H33.6132L33.8688 23.3284C34.2692 22.9279 34.2692 22.2787 33.8688 21.8783C33.4684 21.4778 32.8191 21.4778 32.4187 21.8783L32.1631 22.1339V21.7383C32.1631 21.172 31.704 20.7129 31.1377 20.7129C30.5714 20.7129 30.1123 21.172 30.1123 21.7383V22.1339L29.8326 21.8542C29.4322 21.4537 28.7829 21.4537 28.3825 21.8542C27.982 22.2546 27.982 22.9038 28.3825 23.3043L28.6622 23.584H28.3008C27.7345 23.584 27.2754 24.0431 27.2754 24.6094C27.2754 25.1757 27.7345 25.6348 28.3008 25.6348H28.6622L28.4066 25.8904C28.0062 26.2908 28.0062 26.94 28.4066 27.3405C28.6068 27.5407 28.8693 27.6408 29.1316 27.6408C29.394 27.6408 29.6565 27.5408 29.8566 27.3405L30.1122 27.0849V27.4805C30.1122 28.0468 30.5713 28.5059 31.1376 28.5059C31.7039 28.5059 32.163 28.0468 32.163 27.4805V27.0849L32.4427 27.3646C32.643 27.5648 32.9054 27.665 33.1678 27.665C33.4301 27.665 33.6926 27.5649 33.8928 27.3646C34.2932 26.9641 34.2932 26.3149 33.8928 25.9145L33.6132 25.6348H33.9746C34.541 25.6348 35 25.1757 35 24.6094Z" fill="#4793FF"/>
<path fill-rule="evenodd" clip-rule="evenodd" d="M11.7921 25.5665C12.3569 25.5665 12.8175 25.1059 12.8175 24.5411C12.8175 23.9764 12.3569 23.5157 11.7921 23.5157C11.2273 23.5157 10.7667 23.9764 10.7667 24.5411C10.7667 25.1059 11.2273 25.5665 11.7921 25.5665Z" fill="#FFF4F4"/>
<path fill-rule="evenodd" clip-rule="evenodd" d="M23.2081 25.5665C23.7729 25.5665 24.2335 25.1059 24.2335 24.5411C24.2335 23.9764 23.7729 23.5157 23.2081 23.5157C22.6433 23.5157 22.1827 23.9764 22.1827 24.5411C22.1827 25.1059 22.6433 25.5665 23.2081 25.5665Z" fill="#FFF4F4"/>
<path fill-rule="evenodd" clip-rule="evenodd" d="M6.22076 35C6.78555 35 7.24615 34.5394 7.24615 33.9746C7.24615 33.4098 6.78555 32.9492 6.22076 32.9492C5.65598 32.9492 5.19537 33.4098 5.19537 33.9746C5.19537 34.5394 5.65598 35 6.22076 35Z" fill="#FFF4F4"/>
<path fill-rule="evenodd" clip-rule="evenodd" d="M28.7794 35C29.3442 35 29.8048 34.5394 29.8048 33.9746C29.8048 33.4098 29.3442 32.9492 28.7794 32.9492C28.2146 32.9492 27.754 33.4098 27.754 33.9746C27.754 34.5394 28.2146 35 28.7794 35Z" fill="#FFF4F4"/>
<path d="M17.5 21.8067C16.1296 21.8067 14.7886 21.3335 13.7241 20.4742C13.1138 19.9815 12.6073 19.3736 12.2317 18.6938C11.4154 19.244 10.443 19.5508 9.43952 19.5508C7.16302 19.5508 5.20959 18.0017 4.62662 15.8799C3.54593 15.8002 2.51029 15.3706 1.68581 14.6424C0.614481 13.6961 0 12.3332 0 10.9033C0 8.26942 2.05119 6.10557 4.64002 5.92524C4.8881 5.05359 5.3716 4.26131 6.04904 3.63377C6.97394 2.77689 8.17809 2.30501 9.43952 2.30501C10.4344 2.30501 11.3996 2.60702 12.2121 3.14904C12.5858 2.46127 13.0931 1.8459 13.7067 1.34675C14.7743 0.47831 16.1215 0 17.5 0C18.8784 0 20.2256 0.47831 21.2932 1.34668C21.9069 1.84584 22.4141 2.46121 22.7879 3.14897C23.6003 2.60695 24.5655 2.30494 25.5604 2.30494C26.8219 2.30494 28.026 2.77682 28.9509 3.6337C29.6285 4.26145 30.112 5.0538 30.36 5.92579C31.4448 6.00276 32.4848 6.4324 33.3125 7.16275C34.3849 8.10911 35 9.47247 35 10.9032C35 12.3332 34.3855 13.696 33.3142 14.6423C32.4898 15.3704 31.4539 15.8001 30.3733 15.8797C29.7903 18.0015 27.8369 19.5507 25.5604 19.5507C24.557 19.5507 23.5846 19.2439 22.7683 18.6937C22.3927 19.3735 21.8862 19.9814 21.2759 20.4741C20.2113 21.3335 18.8704 21.8067 17.5 21.8067Z" fill="#FFF4F4"/>
<path d="M33.3125 7.16283C32.4849 6.43241 31.4448 6.00284 30.3601 5.92587C30.112 5.05388 29.6285 4.26146 28.9509 3.63378C28.026 2.77689 26.8219 2.30501 25.5605 2.30501C24.5656 2.30501 23.6004 2.60702 22.7879 3.14904C22.4142 2.46128 21.9069 1.84591 21.2933 1.34675C20.2256 0.478311 18.8785 0 17.5 0V21.8066C18.8703 21.8066 20.2113 21.3335 21.2758 20.4742C21.8862 19.9815 22.3927 19.3736 22.7683 18.6938C23.5845 19.244 24.5569 19.5508 25.5604 19.5508C27.8369 19.5508 29.7903 18.0016 30.3733 15.8798C31.4539 15.8002 32.4897 15.3705 33.3142 14.6424C34.3855 13.6961 35 12.3333 35 10.9033C35.0001 9.47256 34.385 8.1092 33.3125 7.16283Z" fill="#F6EFEA"/>
<path d="M21.3623 31.1036C21.3623 30.5373 20.9032 30.0782 20.3369 30.0782H19.9755L20.2311 29.8226C20.6315 29.4221 20.6315 28.7729 20.2311 28.3725C19.8307 27.972 19.1814 27.972 18.781 28.3725L18.5254 28.6281V28.2325C18.5254 27.6663 18.0663 27.2072 17.5 27.2072V35.0001C18.0663 35.0001 18.5254 34.541 18.5254 33.9747V33.5791L18.8051 33.8588C19.0053 34.0591 19.2678 34.1592 19.5301 34.1592C19.7925 34.1592 20.055 34.0591 20.2552 33.8588C20.6556 33.4584 20.6556 32.8092 20.2552 32.4087L19.9755 32.1289H20.3369C20.9033 32.1289 21.3623 31.6699 21.3623 31.1036Z" fill="#4793FF"/>
</g>
<defs>
<clipPath id="clip0_101_69">
<rect width="35" height="35" fill="white"/>
</clipPath>
</defs>
</svg>
