<svg width="35" height="35" viewBox="0 0 35 35" fill="#FF6B09" xmlns="http://www.w3.org/2000/svg">
<g clip-path="url(#clip0_101_108)">
<path d="M17.5 5.58106C18.0664 5.58106 18.5254 5.12196 18.5254 4.55567V1.02539C18.5254 0.459102 18.0664 0 17.5 0C16.9337 0 16.4746 0.459102 16.4746 1.02539V4.55567C16.4746 5.12196 16.9337 5.58106 17.5 5.58106Z" fill="#FF6B09"/>
<path d="M33.9747 16.4746H30.4444C29.8781 16.4746 29.419 16.9337 29.419 17.5C29.419 18.0663 29.8781 18.5254 30.4444 18.5254H33.9747C34.541 18.5254 35.0001 18.0663 35.0001 17.5C35.0001 16.9337 34.541 16.4746 33.9747 16.4746Z" fill="#FF6B09"/>
<path d="M5.58106 17.5C5.58106 16.9337 5.12196 16.4746 4.55567 16.4746H1.02539C0.459102 16.4746 0 16.9337 0 17.5C0 18.0663 0.459102 18.5254 1.02539 18.5254H4.55567C5.12196 18.5254 5.58106 18.0663 5.58106 17.5Z" fill="#FF6B09"/>
<path d="M26.653 9.37219C26.9155 9.37219 27.1779 9.27204 27.3781 9.07181L29.8743 6.57547C30.2748 6.17502 30.2748 5.52581 29.8743 5.12536C29.474 4.72498 28.8247 4.72498 28.4242 5.12536L25.928 7.62171C25.5275 8.02216 25.5275 8.67137 25.928 9.07181C26.1283 9.27211 26.3907 9.37219 26.653 9.37219Z" fill="#FF6B09"/>
<path d="M27.3781 25.9278C26.9777 25.5275 26.3284 25.5275 25.928 25.9278C25.5275 26.3283 25.5275 26.9775 25.928 27.378L28.4243 29.8742C28.6245 30.0745 28.887 30.1746 29.1493 30.1746C29.4117 30.1746 29.6742 30.0745 29.8743 29.8742C30.2748 29.4738 30.2748 28.8246 29.8743 28.4241L27.3781 25.9278Z" fill="#FF6B09"/>
<path d="M7.62188 25.9277L5.12553 28.4241C4.72508 28.8245 4.72508 29.4737 5.12553 29.8742C5.32576 30.0744 5.58819 30.1745 5.85055 30.1745C6.11292 30.1745 6.37542 30.0744 6.57557 29.8742L9.07186 27.3778C9.47231 26.9775 9.47231 26.3282 9.07186 25.9277C8.67154 25.5273 8.02227 25.5273 7.62188 25.9277Z" fill="#FF6B09"/>
<path d="M7.62193 9.07181C7.82216 9.27203 8.08459 9.37218 8.34695 9.37218C8.60932 9.37218 8.87182 9.27203 9.07197 9.07181C9.47242 8.67143 9.47242 8.02215 9.07197 7.6217L6.57576 5.12542C6.17538 4.72504 5.5261 4.72504 5.12565 5.12542C4.72521 5.5258 4.72521 6.17508 5.12565 6.57553L7.62193 9.07181Z" fill="#FF6B09"/>
<path d="M22.0742 6.49385C22.2029 6.54731 22.3361 6.5726 22.4673 6.5726C22.8692 6.5726 23.2507 6.33478 23.4146 5.94048L24.7693 2.68056C24.9866 2.15761 24.7389 1.55748 24.2159 1.34017C23.6931 1.12292 23.0929 1.37052 22.8756 1.89361L21.5208 5.15353C21.3036 5.67641 21.5513 6.27647 22.0742 6.49385Z" fill="#FF6B09"/>
<path d="M33.1068 22.8755L29.8468 21.5207C29.3238 21.3034 28.7238 21.5511 28.5064 22.0741C28.2891 22.5971 28.5369 23.1972 29.0598 23.4145L32.3197 24.7693C32.4485 24.8227 32.5817 24.848 32.7129 24.848C33.1148 24.848 33.4963 24.6102 33.6601 24.2159C33.8774 23.6929 33.6297 23.0928 33.1068 22.8755Z" fill="#FF6B09"/>
<path d="M12.9258 28.5064C12.403 28.2892 11.8028 28.5368 11.5854 29.0598L10.2307 32.3197C10.0134 32.8427 10.2611 33.4428 10.7841 33.6601C10.9127 33.7136 11.046 33.7389 11.1771 33.7389C11.579 33.7389 11.9605 33.501 12.1244 33.1067L13.4791 29.8467C13.6965 29.3239 13.4488 28.7238 12.9258 28.5064Z" fill="#FF6B09"/>
<path d="M1.89337 12.1243L5.15329 13.4791C5.28195 13.5325 5.41525 13.5578 5.54636 13.5578C5.94825 13.5578 6.32976 13.32 6.49362 12.9257C6.71093 12.4027 6.4632 11.8026 5.94025 11.5853L2.68033 10.2305C2.15765 10.0133 1.55732 10.261 1.33993 10.7839C1.12262 11.3069 1.37042 11.907 1.89337 12.1243Z" fill="#FF6B09"/>
<path d="M28.517 12.9515C28.6803 13.347 29.0624 13.5859 29.4652 13.5859C29.5956 13.5859 29.7281 13.5609 29.8561 13.508L33.1192 12.1609C33.6427 11.9447 33.8919 11.3452 33.6758 10.8218C33.4597 10.2983 32.86 10.0492 32.3367 10.2652L29.0736 11.6124C28.5501 11.8286 28.3009 12.4281 28.517 12.9515Z" fill="#FF6B09"/>
<path d="M23.3874 29.0737C23.1712 28.5502 22.5717 28.3011 22.0483 28.5172C21.5248 28.7333 21.2756 29.3328 21.4917 29.8562L22.8389 33.1193C23.0022 33.5148 23.3843 33.7537 23.7871 33.7537C23.9175 33.7537 24.05 33.7287 24.178 33.6758C24.7015 33.4597 24.9506 32.8602 24.7346 32.3367L23.3874 29.0737Z" fill="#FF6B09"/>
<path d="M6.48293 22.0485C6.26684 21.5251 5.6674 21.2761 5.14384 21.4919L1.8807 22.8391C1.35727 23.0553 1.1081 23.6548 1.32419 24.1782C1.48743 24.5737 1.86956 24.8126 2.2724 24.8126C2.40276 24.8126 2.53531 24.7876 2.66328 24.7347L5.92641 23.3875C6.44991 23.1715 6.69908 22.572 6.48293 22.0485Z" fill="#FF6B09"/>
<path d="M11.6126 5.92657C11.7759 6.3221 12.158 6.56094 12.5608 6.56094C12.6912 6.56094 12.8238 6.53592 12.9517 6.48308C13.4751 6.267 13.7243 5.66742 13.5082 5.14399L12.1611 1.88092C11.945 1.35743 11.3455 1.10833 10.822 1.32434C10.2986 1.54043 10.0494 2.14001 10.2655 2.66343L11.6126 5.92657Z" fill="#FF6B09"/>
<path d="M18.5254 26.9464C23.2843 26.4335 27.002 22.3929 27.002 17.5C27.002 12.2606 22.7395 7.99805 17.5 7.99805C12.2605 7.99805 7.99805 12.2606 7.99805 17.5C7.99805 22.3929 11.7157 26.4334 16.4746 26.9464V33.9746C16.4746 34.5409 16.9337 35 17.5 35C18.0664 35 18.5254 34.5409 18.5254 33.9746V26.9464ZM10.0488 17.5C10.0488 13.3914 13.3914 10.0488 17.5 10.0488C21.6086 10.0488 24.9512 13.3914 24.9512 17.5C24.9512 21.2607 22.1505 24.3791 18.5254 24.8803V20.967L18.7574 21.1991C19.1578 21.5994 19.8071 21.5994 20.2075 21.1991C20.608 20.7987 20.608 20.1494 20.2075 19.749L18.2198 17.7613C17.8233 17.3649 17.1823 17.3603 16.7802 17.7509L14.7294 19.7432C14.3232 20.1378 14.3138 20.787 14.7084 21.1932C14.9095 21.4001 15.1765 21.5041 15.444 21.5041C15.7014 21.5041 15.9591 21.4077 16.1584 21.2142L16.4746 20.907V24.8804C12.8495 24.3791 10.0488 21.2607 10.0488 17.5Z" fill="#FF6B09"/>
</g>
<defs>
<clipPath id="clip0_101_108">
<rect width="35" height="35" fill="white"/>
</clipPath>
</defs>
</svg>
