<svg width="35" height="35" viewBox="0 0 35 35" fill="none" xmlns="http://www.w3.org/2000/svg">
<path d="M17.5 27.7539C11.846 27.7539 7.24609 23.154 7.24609 17.5C7.24609 11.846 11.846 7.24609 17.5 7.24609C18.0663 7.24609 18.5254 7.7052 18.5254 8.27148V26.7285C18.5254 27.2948 18.0663 27.7539 17.5 27.7539Z" fill="#FDBF00"/>
<path d="M33.9746 16.4746H32.3808L33.162 15.1215C33.4452 14.6311 33.2772 14.0039 32.7867 13.7208C32.2962 13.4375 31.6691 13.6056 31.386 14.0961L30.0128 16.4746H19.9755L27.073 9.37712L29.7258 10.0879C29.8147 10.1118 29.904 10.1232 29.9919 10.1232C30.4446 10.1232 30.859 9.82105 30.9817 9.36297C31.1283 8.81596 30.8037 8.25363 30.2567 8.10707L28.7474 7.70266L29.7778 6.67235C30.1782 6.27197 30.1782 5.62269 29.7778 5.22224C29.3774 4.82186 28.7281 4.82186 28.3276 5.22224L27.2973 6.25262L26.8929 4.74338C26.7462 4.19637 26.1842 3.87221 25.637 4.01836C25.0899 4.16499 24.7654 4.72725 24.912 5.27426L25.6228 7.92715L18.5254 15.0245V4.98715L20.9039 3.61395C21.3943 3.3308 21.5624 2.70374 21.2792 2.21326C20.996 1.72272 20.3688 1.55476 19.8785 1.83797L18.5254 2.61918V1.02545C18.5254 0.459163 18.0663 6.10352e-05 17.5 6.10352e-05C16.9337 6.10352e-05 16.4746 0.459163 16.4746 1.02545V33.9745C16.4746 34.5408 16.9337 34.9999 17.5 34.9999C18.0663 34.9999 18.5254 34.5408 18.5254 33.9745V32.3809L19.8785 33.1621C20.04 33.2553 20.2163 33.2997 20.3902 33.2997C20.7446 33.2997 21.0893 33.1157 21.2792 32.7868C21.5624 32.2963 21.3943 31.6692 20.9039 31.3861L18.5254 30.0128V19.9755L25.6228 27.0729L24.912 29.7259C24.7654 30.2729 25.0901 30.8351 25.6371 30.9817C25.726 31.0055 25.8152 31.0169 25.9031 31.0169C26.3558 31.0169 26.7702 30.7147 26.8929 30.2566L27.2973 28.7474L28.3276 29.7777C28.5278 29.978 28.7902 30.0781 29.0526 30.0781C29.315 30.0781 29.5775 29.978 29.7776 29.7777C30.1781 29.3774 30.1781 28.7281 29.7776 28.3276L28.7472 27.2973L30.2565 26.8928C30.8036 26.7462 31.1281 26.184 30.9816 25.6369C30.8349 25.0899 30.2729 24.7654 29.7257 24.912L27.0728 25.6228L19.9755 18.5254H30.0128L31.386 20.9039C31.5759 21.2329 31.9206 21.4168 32.275 21.4168C32.449 21.4168 32.6253 21.3725 32.7867 21.2792C33.2771 20.996 33.4452 20.369 33.162 19.8785L32.3809 18.5254H33.9746C34.5409 18.5254 35 18.0663 35 17.5C35 16.9337 34.5409 16.4746 33.9746 16.4746Z" fill="#7DD5F4"/>
<path d="M4.31033 18.5253H1.02539C0.459102 18.5253 0 18.0662 0 17.4999C0 16.9336 0.459102 16.4745 1.02539 16.4745H4.31033C4.87662 16.4745 5.33572 16.9336 5.33572 17.4999C5.33572 18.0662 4.87662 18.5253 4.31033 18.5253Z" fill="#FDBF00"/>
<path d="M8.17345 9.19892C7.91102 9.19892 7.64859 9.09884 7.44844 8.89854L5.12565 6.57576C4.72521 6.17531 4.72521 5.5261 5.12565 5.12565C5.5261 4.72521 6.17538 4.72521 6.57576 5.12565L8.89854 7.44844C9.29899 7.84889 9.29899 8.4981 8.89854 8.89854C8.69832 9.09884 8.43582 9.19892 8.17345 9.19892Z" fill="#FDBF00"/>
<path d="M5.85074 30.1747C5.5883 30.1747 5.32587 30.0745 5.12572 29.8743C4.72527 29.4739 4.72527 28.8247 5.12572 28.4242L7.4485 26.1014C7.84888 25.7011 8.49816 25.7011 8.89861 26.1014C9.29906 26.5018 9.29906 27.1511 8.89861 27.5515L6.57582 29.8743C6.3756 30.0745 6.11317 30.1747 5.85074 30.1747Z" fill="#FDBF00"/>
<path d="M12.557 6.29743C12.1515 6.29743 11.7674 6.05516 11.6061 5.65608L10.3749 2.61053C10.1627 2.08546 10.4162 1.4878 10.9412 1.27561C11.4662 1.06329 12.064 1.3169 12.2762 1.8419L13.5073 4.88745C13.7196 5.41251 13.466 6.01018 12.941 6.22237C12.8152 6.27336 12.685 6.29743 12.557 6.29743Z" fill="#FDBF00"/>
<path d="M2.22659 24.7C1.82101 24.7 1.43697 24.4577 1.27564 24.0586C1.06339 23.5336 1.31693 22.9359 1.84193 22.7237L4.88741 21.4926C5.41241 21.2803 6.01015 21.5339 6.22233 22.0589C6.43459 22.5839 6.18104 23.1816 5.65604 23.3938L2.61056 24.6249C2.48472 24.6759 2.35456 24.7 2.22659 24.7Z" fill="#FDBF00"/>
<path d="M11.2523 33.7696C11.1228 33.7696 10.9912 33.7449 10.8639 33.6927C10.3399 33.4779 10.0891 32.8791 10.3039 32.3551L11.5496 29.3155C11.7645 28.7916 12.3631 28.5408 12.8873 28.7555C13.4113 28.9703 13.662 29.5692 13.4472 30.0932L12.2015 33.1328C12.039 33.5294 11.6561 33.7696 11.2523 33.7696Z" fill="#FDBF00"/>
<path d="M5.29505 13.524C5.16551 13.524 5.03392 13.4993 4.90663 13.4471L1.86703 12.2015C1.34299 11.9867 1.09225 11.3879 1.30703 10.8639C1.52182 10.3398 2.12072 10.0892 2.64462 10.3039L5.68422 11.5495C6.20826 11.7643 6.45901 12.3631 6.24422 12.8871C6.08166 13.2839 5.69885 13.524 5.29505 13.524Z" fill="#FDBF00"/>
<path d="M33.9746 16.4746H32.3808L33.162 15.1215C33.4452 14.6311 33.2772 14.0039 32.7867 13.7208C32.2962 13.4375 31.6691 13.6056 31.386 14.0961L30.0128 16.4746H19.9755L27.073 9.37712L29.7258 10.0879C29.8147 10.1118 29.904 10.1232 29.9919 10.1232C30.4446 10.1232 30.859 9.82105 30.9817 9.36297C31.1283 8.81596 30.8037 8.25363 30.2567 8.10707L28.7474 7.70266L29.7778 6.67235C30.1782 6.27197 30.1782 5.62269 29.7778 5.22224C29.3774 4.82186 28.7281 4.82186 28.3276 5.22224L27.2973 6.25262L26.8929 4.74338C26.7462 4.19637 26.1842 3.87221 25.637 4.01836C25.0899 4.16499 24.7654 4.72725 24.912 5.27426L25.6228 7.92715L18.5254 15.0245V4.98715L20.9039 3.61395C21.3943 3.3308 21.5624 2.70374 21.2792 2.21326C20.996 1.72272 20.3688 1.55476 19.8785 1.83797L18.5254 2.61918V1.02545C18.5254 0.459163 18.0663 6.10352e-05 17.5 6.10352e-05V34.9999C18.0663 34.9999 18.5254 34.5408 18.5254 33.9745V32.3809L19.8785 33.1621C20.04 33.2553 20.2163 33.2997 20.3902 33.2997C20.7446 33.2997 21.0893 33.1157 21.2792 32.7868C21.5624 32.2963 21.3943 31.6692 20.9039 31.3861L18.5254 30.0128V19.9755L25.6228 27.0729L24.912 29.7259C24.7654 30.2729 25.0901 30.8351 25.6371 30.9817C25.726 31.0055 25.8152 31.0169 25.9031 31.0169C26.3558 31.0169 26.7702 30.7147 26.8929 30.2566L27.2973 28.7474L28.3276 29.7777C28.5278 29.978 28.7902 30.0781 29.0526 30.0781C29.315 30.0781 29.5775 29.978 29.7776 29.7777C30.1781 29.3774 30.1781 28.7281 29.7776 28.3276L28.7472 27.2973L30.2565 26.8928C30.8036 26.7462 31.1281 26.184 30.9816 25.6369C30.8349 25.0899 30.2729 24.7654 29.7257 24.912L27.0728 25.6228L19.9755 18.5254H30.0128L31.386 20.9039C31.5759 21.2329 31.9206 21.4168 32.275 21.4168C32.449 21.4168 32.6253 21.3725 32.7867 21.2792C33.2771 20.996 33.4452 20.369 33.162 19.8785L32.3809 18.5254H33.9746C34.5409 18.5254 35 18.0663 35 17.5C35 16.9337 34.5409 16.4746 33.9746 16.4746Z" fill="#4793FF"/>
</svg>
